HIERARCHY
ROOT hip
{
	OFFSET 0.000000 0.000000 0.000000 
	CHANNELS 6 Xposition Yposition Zposition Xrotation Zrotation Yrotation
	JOINT abdomen
	{
		OFFSET 0.000000 3.402643 0.000000 
		CHANNELS 3 Xrotation Zrotation Yrotation
		JOINT chest
		{
			OFFSET 0.000000 8.438565 -0.680529 
			CHANNELS 3 Xrotation Zrotation Yrotation
			JOINT neck
			{
				OFFSET 0.000000 10.207942 -0.272212 
				CHANNELS 3 Xrotation Zrotation Yrotation
				JOINT head
				{
					OFFSET 0.000000 3.130431 0.000000 
					CHANNELS 3 Xrotation Zrotation Yrotation
					End Site
					{
						OFFSET 0.000000 3.130435 0.000000 
					}
				}
			}
			JOINT lCollar
			{
				OFFSET 3.470700 6.669187 -0.816635 
				CHANNELS 3 Yrotation Zrotation Xrotation
				JOINT lShldr
				{
					OFFSET 3.198488 0.000000 0.000000 
					CHANNELS 3 Zrotation Yrotation Xrotation
					JOINT lForeArm
					{
						OFFSET 10.139888 0.000000 0.000000 
						CHANNELS 3 Yrotation Zrotation Xrotation
						JOINT lHand
						{
							OFFSET 8.370511 0.000000 0.000000 
							CHANNELS 3 Zrotation Yrotation Xrotation
							End Site
							{
								OFFSET 4.083176 0.000000 0.000000 
							}
						}
					}
				}
			}
			JOINT rCollar
			{
				OFFSET -3.470700 6.669187 -0.816635 
				CHANNELS 3 Yrotation Zrotation Xrotation
				JOINT rShldr
				{
					OFFSET -3.198488 0.000000 0.000000 
					CHANNELS 3 Zrotation Yrotation Xrotation
					JOINT rForeArm
					{
						OFFSET -10.139888 0.000000 0.000000 
						CHANNELS 3 Yrotation Zrotation Xrotation
						JOINT rHand
						{
							OFFSET -8.370511 0.000000 0.000000 
							CHANNELS 3 Zrotation Yrotation Xrotation
							End Site
							{
								OFFSET -4.083176 0.000000 0.000000 
							}
						}
					}
				}
			}
		}
	}
	JOINT lThigh
	{
		OFFSET 5.308129 -1.633274 1.361059 
		CHANNELS 3 Xrotation Zrotation Yrotation
		JOINT lShin
		{
			OFFSET -2.041588 -20.007561 0.000000 
			CHANNELS 3 Xrotation Zrotation Yrotation
			JOINT lFoot
			{
				OFFSET 0.000000 -19.190928 -1.224953 
				CHANNELS 3 Xrotation Yrotation Zrotation
				End Site
				{
					OFFSET 0.000000 -2.449906 4.627600 
				}
			}
		}
	}
	JOINT rThigh
	{
		OFFSET -5.308129 -1.633274 1.361059 
		CHANNELS 3 Xrotation Zrotation Yrotation
		JOINT rShin
		{
			OFFSET 2.041588 -20.007561 0.000000 
			CHANNELS 3 Xrotation Zrotation Yrotation
			JOINT rFoot
			{
				OFFSET 0.000000 -19.190928 -1.224953 
				CHANNELS 3 Xrotation Yrotation Zrotation
				End Site
				{
					OFFSET 0.000000 -2.449906 4.627600 
				}
			}
		}
	}
}
MOTION
Frames: 11
Frame Time: 0.033333
0.851761 49.970303 0.474638 0.956940 -0.458878 1.230508 0.000000 0.000000 0.000000 -2.773484 -0.723170 0.755004 4.820595 -0.400344 -0.878953 2.942824 1.669009 -1.895149 -0.568767 -0.928604 -1.933725 -34.301491 1.937662 -18.605961 -13.902555 3.460236 4.668849 2.041081 -1.705181 -3.518517 5.495595 8.213617 -2.211344 27.539856 -18.693398 -15.433630 20.801380 -2.025396 1.252184 -17.381500 -0.319758 -3.931540 -1.698905 8.109988 6.311924 9.908396 -2.803823 10.050991 -7.289006 0.468875 -6.176343 3.885137 -8.395412 -7.471211 3.083426 2.776709 -10.234132 -5.453078 -0.339883 7.658250 
1.043607 49.993980 0.270994 0.936169 -0.576065 1.103558 0.000000 0.000000 0.000000 -2.558675 -0.769943 0.779044 4.393154 -0.390535 -1.230507 3.653731 1.922298 -2.286163 -1.379549 -2.878304 -1.788784 -38.506657 3.596585 -16.306490 -17.843788 2.848752 4.698006 -2.664401 0.723155 -3.396166 6.353521 11.007256 -2.207445 31.032330 -20.342186 -12.120467 23.775599 -1.863774 5.025095 -11.561625 -0.695332 -3.735474 -1.991311 8.011555 6.306197 10.064220 -2.862059 10.309824 -7.250048 0.404846 -5.883740 4.276510 -8.407870 -7.445122 1.708184 2.702619 -10.360751 -4.413826 -0.297208 7.726877 
1.206913 50.032261 0.047217 0.980434 -0.820163 1.093778 0.000000 0.000000 0.000000 -2.295228 -0.805930 0.605881 3.862604 -0.175705 -1.689475 4.519521 1.648892 -2.442362 -2.148661 -4.541690 -1.595801 -43.006084 5.034317 -14.040573 -22.092058 2.414765 7.258049 -8.709156 0.961744 -3.278025 7.134817 14.028002 -2.220798 34.328678 -22.097679 -9.430761 27.538351 -2.096405 13.060332 -8.549207 1.172722 -3.779109 -2.264323 8.049957 6.435368 10.049302 -2.976687 10.321530 -7.076938 0.465526 -5.479333 4.762765 -8.169801 -7.264036 -0.087451 2.535945 -11.046999 -3.108268 -0.224679 7.726278 
1.352940 50.087120 -0.231474 1.197283 -1.025123 1.308734 0.000000 0.000000 0.000000 -2.139181 -0.837710 0.373465 3.718526 -0.195165 -2.226583 4.858286 1.746070 -2.725724 -3.024677 -5.761995 -1.518737 -47.905010 5.748794 -11.409061 -25.623888 1.984881 11.212840 -11.502234 1.303437 -3.253096 7.658108 16.170773 -2.303187 37.865227 -23.959309 -7.117567 31.482527 -2.084563 17.681835 -8.037103 4.403460 -3.941545 -2.605718 8.098427 6.446514 9.548339 -3.114964 10.062506 -6.566621 0.351290 -5.095887 4.028409 -8.078477 -7.143387 0.244117 2.585612 -12.052927 -2.777518 -0.160194 7.776147 
1.450158 50.131039 -0.542027 1.098635 -1.815297 2.002804 0.000000 0.000000 0.000000 -1.767679 -0.489115 -0.297083 4.080999 0.019504 -3.027344 5.041646 2.194277 -2.990201 -3.827221 -6.425148 -1.205265 -52.537910 5.996966 -7.213680 -29.071047 0.786828 12.830523 -10.412842 4.028871 -3.560018 7.472879 17.838352 -2.161907 42.083611 -25.468336 -5.941571 35.240757 -1.772893 14.692245 -9.529078 5.225050 -4.096122 -3.436642 8.805078 6.637605 10.181182 -3.174518 9.508438 -6.366825 0.344040 -4.701638 3.719864 -7.255112 -6.792962 0.293608 2.691187 -14.130431 -2.339372 -0.122632 7.601675 
1.489654 50.185909 -0.935579 1.258321 -2.419848 2.345782 0.000000 0.000000 0.000000 -1.395912 -0.337333 -0.870611 4.493139 -0.165669 -3.701212 5.250468 3.197551 -3.383989 -4.268980 -7.044780 -0.883087 -57.003544 5.454497 -3.702267 -32.114380 -0.167462 12.958552 -9.363653 4.950088 -3.641868 7.102501 18.156111 -1.880991 47.556297 -26.362509 -6.241437 38.555386 -1.706771 13.312132 -10.623587 3.609254 -4.054479 -4.167190 9.307901 6.685281 10.112391 -3.184244 9.131952 -5.839640 0.296012 -4.396426 2.867288 -6.642470 -6.474261 0.430207 2.857924 -16.017488 -1.570548 -0.045918 7.287992 
1.469689 50.226425 -1.405431 1.511764 -3.239629 2.278927 0.000000 0.000000 0.000000 -0.965322 -0.048126 -1.339312 4.872804 -0.379750 -4.375099 5.878963 4.335840 -3.867776 -4.619585 -7.870342 -0.501137 -60.154049 4.382178 1.251071 -35.209812 -1.678479 14.770113 -6.889075 6.281313 -3.707175 6.618021 18.112911 -1.492449 53.185177 -26.352863 -7.486531 40.049152 -1.820746 13.653196 -10.463082 2.934072 -3.990355 -5.242076 10.121707 6.884627 10.554399 -3.166150 8.928179 -5.534481 0.283197 -4.228077 1.708017 -5.867917 -6.057853 0.587985 3.176100 -17.522774 0.039041 0.015799 6.740834 
1.480576 50.273212 -1.948366 1.609993 -3.981987 1.987128 0.000000 0.000000 0.000000 -0.339137 0.064250 -1.810944 5.586840 -0.009724 -5.302736 6.980209 4.607058 -4.153892 -5.177507 -7.847088 0.059141 -62.509907 2.589888 7.975443 -38.003193 -3.759831 15.626594 -4.462293 7.833536 -3.730686 6.000962 17.988403 -0.900553 57.759418 -25.891294 -6.856359 40.351227 -1.635772 14.165067 -10.069279 0.899583 -3.828241 -6.034407 10.788683 6.966276 10.616834 -3.104579 8.977109 -4.957689 0.252993 -4.032545 0.272618 -5.630064 -6.312165 1.543540 4.143161 -17.544331 1.641994 0.125909 6.018054 
1.440807 50.285370 -2.504339 1.731741 -4.589065 1.057557 0.000000 0.000000 0.000000 0.208320 0.007908 -1.992000 6.369975 0.359503 -5.761789 8.458650 4.655585 -4.183089 -5.416162 -7.707284 0.540327 -63.960972 -0.224573 15.470585 -40.703072 -5.000142 18.663172 -3.208822 7.877334 -3.683605 5.763739 17.873274 -0.390399 61.017769 -25.341150 -5.240424 39.762779 -1.266273 15.440870 -8.180768 0.305709 -3.713734 -6.921511 11.449712 7.093764 11.129485 -3.019204 9.691464 -4.624341 0.233468 -4.005263 -2.458189 -5.782343 -6.568223 5.291458 5.085366 -15.082168 1.740970 0.123643 5.807570 
1.314847 50.234760 -3.056468 1.761237 -5.009765 -0.039766 0.000000 0.000000 0.000000 0.833866 -0.153542 -2.143518 7.147356 0.388557 -5.898566 9.790554 4.783134 -4.027357 -5.469119 -8.201432 1.099784 -63.937660 -3.856226 23.637213 -43.711174 -5.007780 24.433649 -0.472594 6.995962 -3.556204 5.543341 17.733818 0.202999 62.977062 -24.997124 -3.000242 39.512287 -0.662814 16.283182 -5.221236 0.875582 -3.638834 -8.013728 12.101695 7.212667 12.315116 -2.919163 10.519100 -4.557242 0.266139 -4.213265 -4.958911 -6.080837 -6.452385 9.509999 5.486729 -10.136599 0.904606 0.061878 5.937003 
1.047324 50.154926 -3.558650 1.396747 -5.114799 -1.755885 0.000000 0.000000 0.000000 1.642811 -0.580715 -1.681420 7.835426 0.155415 -5.927739 11.066927 4.461232 -4.103686 -5.247178 -9.226631 1.763217 -63.063183 -8.074463 31.753235 -47.126122 -4.997594 27.084230 3.194047 6.681235 -3.455979 5.624360 17.228174 1.026954 64.219238 -24.574369 -0.856447 38.809856 0.018768 16.448248 -3.721766 -1.818446 -3.530652 -8.229031 12.951744 7.868392 13.480281 -3.242965 10.867717 -4.735228 0.246936 -4.456993 -6.803842 -6.617664 -6.268040 13.697596 5.801817 -2.518939 -0.257262 0.002152 5.561497 
